{
    "accessors" : [
        {
            "bufferView" : 0,
            "componentType" : 5123,
            "count" : 11574,
            "max" : [
                2171
            ],
            "min" : [
                0
            ],
            "type" : "SCALAR"
        },
        {
            "bufferView" : 1,
            "componentType" : 5126,
            "count" : 2172,
            "max" : [
                3.9053328037261963,
                0.643121063709259,
                2.864619493484497
            ],
            "min" : [
                -3.537020683288574,
                -4.700526237487793,
                -2.864619016647339
            ],
            "type" : "VEC3"
        },
        {
            "bufferView" : 2,
            "componentType" : 5126,
            "count" : 2172,
            "max" : [
                0.9983519911766052,
                1.0,
                0.99969482421875
            ],
            "min" : [
                -0.9986876845359802,
                -0.9561144113540649,
                -0.9990233778953552
            ],
            "type" : "VEC3"
        },
        {
            "bufferView" : 3,
            "componentType" : 5126,
            "count" : 2172,
            "max" : [
                6.056857109069824,
                6.559772491455078
            ],
            "min" : [
                -5.358224391937256,
                -5.063185214996338
            ],
            "type" : "VEC2"
        },
        {
            "bufferView" : 4,
            "componentType" : 5123,
            "count" : 4932,
            "max" : [
                853
            ],
            "min" : [
                0
            ],
            "type" : "SCALAR"
        },
        {
            "bufferView" : 5,
            "componentType" : 5126,
            "count" : 854,
            "max" : [
                3.985380172729492,
                1.2516220808029175,
                2.9097814559936523
            ],
            "min" : [
                -3.6273224353790283,
                -4.73369026184082,
                -2.909778594970703
            ],
            "type" : "VEC3"
        },
        {
            "bufferView" : 6,
            "componentType" : 5126,
            "count" : 854,
            "max" : [
                0.9913938045501709,
                0.9159215092658997,
                0.9964598417282104
            ],
            "min" : [
                -0.9913938045501709,
                -0.8413342833518982,
                -0.9964598417282104
            ],
            "type" : "VEC3"
        },
        {
            "bufferView" : 7,
            "componentType" : 5126,
            "count" : 854,
            "max" : [
                6.55203914642334,
                6.559772491455078
            ],
            "min" : [
                -5.553217887878418,
                -5.559771537780762
            ],
            "type" : "VEC2"
        }
    ],
    "asset" : {
        "generator" : "Khronos Blender glTF 2.0 exporter",
        "version" : "2.0"
    },
    "bufferViews" : [
        {
            "buffer" : 0,
            "byteLength" : 23148,
            "byteOffset" : 0,
            "target" : 34963
        },
        {
            "buffer" : 0,
            "byteLength" : 26064,
            "byteOffset" : 23148,
            "target" : 34962
        },
        {
            "buffer" : 0,
            "byteLength" : 26064,
            "byteOffset" : 49212,
            "target" : 34962
        },
        {
            "buffer" : 0,
            "byteLength" : 17376,
            "byteOffset" : 75276,
            "target" : 34962
        },
        {
            "buffer" : 0,
            "byteLength" : 9864,
            "byteOffset" : 92652,
            "target" : 34963
        },
        {
            "buffer" : 0,
            "byteLength" : 10248,
            "byteOffset" : 102516,
            "target" : 34962
        },
        {
            "buffer" : 0,
            "byteLength" : 10248,
            "byteOffset" : 112764,
            "target" : 34962
        },
        {
            "buffer" : 0,
            "byteLength" : 6832,
            "byteOffset" : 123012,
            "target" : 34962
        }
    ],
    "buffers" : [
        {
            "byteLength" : 129844,
            "uri" : "Saia.bin"
        }
    ],
    "images" : [
        {
            "name" : "skirt_Texture",
            "uri" : "skirt_Texture.jpg"
        }
    ],
    "materials" : [
        {
            "name" : "Material",
            "pbrMetallicRoughness" : {
                "baseColorFactor" : [
                    0.0,
                    0.0,
                    0.0,
                    1.0
                ],
                "metallicFactor" : 0.0
            }
        },
        {
            "name" : "Material.001",
            "pbrMetallicRoughness" : {
                "baseColorTexture" : {
                    "index" : 0
                },
                "metallicFactor" : 0.0
            }
        }
    ],
    "meshes" : [
        {
            "name" : "Circle.003",
            "primitives" : [
                {
                    "attributes" : {
                        "NORMAL" : 2,
                        "POSITION" : 1,
                        "TEXCOORD_0" : 3
                    },
                    "indices" : 0,
                    "material" : 0
                },
                {
                    "attributes" : {
                        "NORMAL" : 6,
                        "POSITION" : 5,
                        "TEXCOORD_0" : 7
                    },
                    "indices" : 4,
                    "material" : 1
                }
            ]
        }
    ],
    "nodes" : [
        {
            "name" : "Camera",
            "rotation" : [
                0.483536034822464,
                0.33687159419059753,
                -0.20870360732078552,
                0.7804827094078064
            ],
            "translation" : [
                7.481131553649902,
                5.34366512298584,
                6.5076398849487305
            ]
        },
        {
            "name" : "Lamp",
            "rotation" : [
                0.16907575726509094,
                0.7558802962303162,
                -0.27217137813568115,
                0.570947527885437
            ],
            "scale" : [
                1.0,
                1.0,
                0.9999999403953552
            ],
            "translation" : [
                4.076245307922363,
                5.903861999511719,
                -1.0054539442062378
            ]
        },
        {
            "mesh" : 0,
            "name" : "SaiaFechada",
            "rotation" : [
                0.0,
                1.0,
                -0.0,
                -1.6292068494294654e-07
            ],
            "scale" : [
                6.775990962982178,
                6.781706809997559,
                6.877392768859863
            ],
            "translation" : [
                0.0,
                2.1248066425323486,
                -0.0
            ]
        },
        {
            "name" : "Sun",
            "translation" : [
                0.0,
                5.539953231811523,
                -0.0
            ]
        }
    ],
    "samplers" : [
        {}
    ],
    "scene" : 0,
    "scenes" : [
        {
            "name" : "Scene",
            "nodes" : [
                2,
                3,
                1,
                0
            ]
        }
    ],
    "textures" : [
        {
            "sampler" : 0,
            "source" : 0
        }
    ]
}
